<mxfile host="app.diagrams.net" modified="2024-05-29T06:50:32.879Z" agent="Mozilla/5.0 (Windows NT 10.0; Win64; x64) AppleWebKit/537.36 (KHTML, like Gecko) Chrome/125.0.0.0 Safari/537.36" etag="7SfszEHOcuDiGeBYkCjV" version="24.4.9" type="device">
  <diagram name="페이지-1" id="3sxUNc3sHF4uWzPn6fWs">
    <mxGraphModel dx="1434" dy="780" grid="1" gridSize="10" guides="1" tooltips="1" connect="1" arrows="1" fold="1" page="1" pageScale="1" pageWidth="827" pageHeight="1169" math="0" shadow="0">
      <root>
        <mxCell id="0" />
        <mxCell id="1" parent="0" />
        <mxCell id="8R02hetVk1ahC1JUW0OJ-1" value="APP" style="rounded=0;whiteSpace=wrap;html=1;" vertex="1" parent="1">
          <mxGeometry x="660" y="310" width="120" height="60" as="geometry" />
        </mxCell>
        <mxCell id="8R02hetVk1ahC1JUW0OJ-3" value="feeder" style="rounded=0;whiteSpace=wrap;html=1;" vertex="1" parent="1">
          <mxGeometry x="120" y="310" width="120" height="60" as="geometry" />
        </mxCell>
        <mxCell id="8R02hetVk1ahC1JUW0OJ-4" value="배식기록" style="ellipse;whiteSpace=wrap;html=1;" vertex="1" parent="1">
          <mxGeometry x="685" y="220" width="70" height="50" as="geometry" />
        </mxCell>
        <mxCell id="8R02hetVk1ahC1JUW0OJ-5" value="잔량기록" style="ellipse;whiteSpace=wrap;html=1;" vertex="1" parent="1">
          <mxGeometry x="590" y="230" width="70" height="50" as="geometry" />
        </mxCell>
        <mxCell id="8R02hetVk1ahC1JUW0OJ-6" value="" style="endArrow=none;html=1;rounded=0;entryX=0.5;entryY=1;entryDx=0;entryDy=0;" edge="1" parent="1" source="8R02hetVk1ahC1JUW0OJ-1" target="8R02hetVk1ahC1JUW0OJ-4">
          <mxGeometry width="50" height="50" relative="1" as="geometry">
            <mxPoint x="190" y="430" as="sourcePoint" />
            <mxPoint x="240" y="380" as="targetPoint" />
          </mxGeometry>
        </mxCell>
        <mxCell id="8R02hetVk1ahC1JUW0OJ-8" value="전송/요청한다" style="rhombus;whiteSpace=wrap;html=1;" vertex="1" parent="1">
          <mxGeometry x="340" y="300" width="110" height="80" as="geometry" />
        </mxCell>
        <mxCell id="8R02hetVk1ahC1JUW0OJ-10" value="" style="endArrow=none;html=1;rounded=0;entryX=0;entryY=0.5;entryDx=0;entryDy=0;exitX=1;exitY=0.5;exitDx=0;exitDy=0;" edge="1" parent="1" source="8R02hetVk1ahC1JUW0OJ-8" target="8R02hetVk1ahC1JUW0OJ-1">
          <mxGeometry width="50" height="50" relative="1" as="geometry">
            <mxPoint x="150" y="320" as="sourcePoint" />
            <mxPoint x="168" y="260" as="targetPoint" />
          </mxGeometry>
        </mxCell>
        <mxCell id="8R02hetVk1ahC1JUW0OJ-11" value="1" style="text;html=1;align=center;verticalAlign=middle;resizable=0;points=[];autosize=1;strokeColor=none;fillColor=none;" vertex="1" parent="1">
          <mxGeometry x="310" y="310" width="30" height="30" as="geometry" />
        </mxCell>
        <mxCell id="8R02hetVk1ahC1JUW0OJ-12" value="1" style="text;html=1;align=center;verticalAlign=middle;resizable=0;points=[];autosize=1;strokeColor=none;fillColor=none;" vertex="1" parent="1">
          <mxGeometry x="450" y="310" width="30" height="30" as="geometry" />
        </mxCell>
        <mxCell id="8R02hetVk1ahC1JUW0OJ-14" value="" style="endArrow=none;html=1;rounded=0;exitX=1;exitY=0.5;exitDx=0;exitDy=0;entryX=0;entryY=0.5;entryDx=0;entryDy=0;" edge="1" parent="1" source="8R02hetVk1ahC1JUW0OJ-3" target="8R02hetVk1ahC1JUW0OJ-8">
          <mxGeometry width="50" height="50" relative="1" as="geometry">
            <mxPoint x="570" y="430" as="sourcePoint" />
            <mxPoint x="620" y="380" as="targetPoint" />
          </mxGeometry>
        </mxCell>
        <mxCell id="8R02hetVk1ahC1JUW0OJ-15" value="" style="endArrow=none;html=1;rounded=0;entryX=0;entryY=0;entryDx=0;entryDy=0;exitX=0.743;exitY=1.04;exitDx=0;exitDy=0;exitPerimeter=0;" edge="1" parent="1" source="8R02hetVk1ahC1JUW0OJ-5" target="8R02hetVk1ahC1JUW0OJ-1">
          <mxGeometry width="50" height="50" relative="1" as="geometry">
            <mxPoint x="630" y="270" as="sourcePoint" />
            <mxPoint x="730" y="280" as="targetPoint" />
          </mxGeometry>
        </mxCell>
        <mxCell id="8R02hetVk1ahC1JUW0OJ-17" value="배식기록" style="ellipse;whiteSpace=wrap;html=1;" vertex="1" parent="1">
          <mxGeometry x="10" y="315" width="70" height="50" as="geometry" />
        </mxCell>
        <mxCell id="8R02hetVk1ahC1JUW0OJ-18" value="" style="endArrow=none;html=1;rounded=0;exitX=0;exitY=0.5;exitDx=0;exitDy=0;" edge="1" parent="1" source="8R02hetVk1ahC1JUW0OJ-3" target="8R02hetVk1ahC1JUW0OJ-17">
          <mxGeometry width="50" height="50" relative="1" as="geometry">
            <mxPoint x="570" y="430" as="sourcePoint" />
            <mxPoint x="620" y="380" as="targetPoint" />
          </mxGeometry>
        </mxCell>
        <mxCell id="8R02hetVk1ahC1JUW0OJ-19" value="잔량기록" style="ellipse;whiteSpace=wrap;html=1;" vertex="1" parent="1">
          <mxGeometry x="10" y="250" width="70" height="50" as="geometry" />
        </mxCell>
        <mxCell id="8R02hetVk1ahC1JUW0OJ-20" value="" style="endArrow=none;html=1;rounded=0;exitX=0;exitY=0;exitDx=0;exitDy=0;entryX=1;entryY=0.5;entryDx=0;entryDy=0;" edge="1" parent="1" source="8R02hetVk1ahC1JUW0OJ-3" target="8R02hetVk1ahC1JUW0OJ-19">
          <mxGeometry width="50" height="50" relative="1" as="geometry">
            <mxPoint x="130" y="350" as="sourcePoint" />
            <mxPoint x="90" y="350" as="targetPoint" />
          </mxGeometry>
        </mxCell>
        <mxCell id="8R02hetVk1ahC1JUW0OJ-21" value="기기 번호" style="ellipse;whiteSpace=wrap;html=1;" vertex="1" parent="1">
          <mxGeometry x="120" y="240" width="70" height="50" as="geometry" />
        </mxCell>
        <mxCell id="8R02hetVk1ahC1JUW0OJ-22" value="" style="endArrow=none;html=1;rounded=0;entryX=0.5;entryY=1;entryDx=0;entryDy=0;" edge="1" parent="1" target="8R02hetVk1ahC1JUW0OJ-21">
          <mxGeometry width="50" height="50" relative="1" as="geometry">
            <mxPoint x="155" y="310" as="sourcePoint" />
            <mxPoint x="90" y="285" as="targetPoint" />
          </mxGeometry>
        </mxCell>
        <mxCell id="8R02hetVk1ahC1JUW0OJ-24" value="배식 시간" style="ellipse;whiteSpace=wrap;html=1;" vertex="1" parent="1">
          <mxGeometry x="10" y="390" width="70" height="50" as="geometry" />
        </mxCell>
        <mxCell id="8R02hetVk1ahC1JUW0OJ-25" value="" style="endArrow=none;html=1;rounded=0;exitX=0;exitY=1;exitDx=0;exitDy=0;entryX=1;entryY=0.18;entryDx=0;entryDy=0;entryPerimeter=0;" edge="1" parent="1" source="8R02hetVk1ahC1JUW0OJ-3" target="8R02hetVk1ahC1JUW0OJ-24">
          <mxGeometry width="50" height="50" relative="1" as="geometry">
            <mxPoint x="130" y="350" as="sourcePoint" />
            <mxPoint x="90" y="350" as="targetPoint" />
          </mxGeometry>
        </mxCell>
        <mxCell id="8R02hetVk1ahC1JUW0OJ-27" value="설정된 배식 시간" style="ellipse;whiteSpace=wrap;html=1;" vertex="1" parent="1">
          <mxGeometry x="600" y="430" width="110" height="90" as="geometry" />
        </mxCell>
        <mxCell id="8R02hetVk1ahC1JUW0OJ-28" value="" style="endArrow=none;html=1;rounded=0;entryX=0;entryY=1;entryDx=0;entryDy=0;" edge="1" parent="1" source="8R02hetVk1ahC1JUW0OJ-27" target="8R02hetVk1ahC1JUW0OJ-1">
          <mxGeometry width="50" height="50" relative="1" as="geometry">
            <mxPoint x="730" y="440" as="sourcePoint" />
            <mxPoint x="730" y="380" as="targetPoint" />
          </mxGeometry>
        </mxCell>
      </root>
    </mxGraphModel>
  </diagram>
</mxfile>
